<svg id="Layer_1" data-name="Layer 1" xmlns="http://www.w3.org/2000/svg" viewBox="0 0 16 16"><defs><style>.cls-1{fill:#fff;}.cls-2{fill:#813a7c;}.cls-3{fill:#80397b;fill-rule:evenodd;}</style></defs><title>OneNote_16x1</title><rect class="cls-1" x="12" y="10" width="3" height="3"/><path class="cls-2" d="M15,10v3H12V10h3m0-1H12a1,1,0,0,0-1,1v3a1,1,0,0,0,1,1h3a1,1,0,0,0,1-1V10a1,1,0,0,0-1-1Z"/><rect class="cls-1" x="12" y="7" width="3" height="2"/><path class="cls-2" d="M15,7V9H12V7h3m0-1H12a1,1,0,0,0-1,1V9a1,1,0,0,0,1,1h3a1,1,0,0,0,1-1V7a1,1,0,0,0-1-1Z"/><polygon class="cls-1" points="15 3 13 3 13 2 5 2 5 14 13 14 13 6 15 6 15 3"/><path class="cls-2" d="M13,2V3h2V6H13v8H5V2h8m0-1H5A1,1,0,0,0,4,2V14a1,1,0,0,0,1,1h8a1,1,0,0,0,1-1V7h1a1,1,0,0,0,1-1V3a1,1,0,0,0-1-1H14a1,1,0,0,0-1-1Z"/><path class="cls-2" d="M7,3h5V4H7ZM7,6h5V5H7ZM7,8h5V7H7Zm0,2h5V9H7Zm0,1h5v1H7Z"/><path class="cls-3" d="M10,0,0,1.75v12.5L10,16Z"/><path class="cls-1" d="M8,4l-1.51.09V8.41q0,.2,0,.36t0,.3,0,.24c0,.07,0,.13,0,.17h0L6.4,9.3l-.09-.17L6.22,9l-.07-.13L3.51,4.25,2,4.34v7.32l1.32.07V7.63q0-.2,0-.37t0-.33q0-.15,0-.28t0-.23h0l.06.12.07.14.09.16.1.19,2.75,4.87L8,12V4"/></svg>